Coordinates
version=1
nRows=6
nColumns=36
inDegrees=yes

Units are S.I. units (second, meters, Newtons, ...)
If the header above contains a line with 'inDegrees', this indicates whether rotational values are in degrees (yes) or radians (no).

endheader
time	pelvis_tilt	pelvis_list	pelvis_rotation	pelvis_tx	pelvis_ty	pelvis_tz	hip_flexion_r	hip_adduction_r	hip_rotation_r	knee_angle_r	knee_angle_r_beta	ankle_angle_r	subtalar_angle_r	mtp_angle_r	hip_flexion_l	hip_adduction_l	hip_rotation_l	knee_angle_l	knee_angle_l_beta	ankle_angle_l	subtalar_angle_l	mtp_angle_l	lumbar_extension	lumbar_bending	lumbar_rotation	arm_flex_r	arm_add_r	arm_rot_r	elbow_flex_r	pro_sup_r	arm_flex_l	arm_add_l	arm_rot_l	elbow_flex_l	pro_sup_l
     29.90000000	      2.99428015	      0.44050273	     -3.75531398	      0.59813523	      1.02851274	      0.67738809	      5.93126978	     -2.06703585	      7.51497571	     50.60187326	      0.88316930	     -0.43663782	    -15.92328519	     -7.49999987	     11.90597221	      1.25019772	     -0.83054861	     18.15618232	      0.31688516	      1.56728631	     -3.68543713	     -7.49999987	    -13.75608390	     -3.82270723	      6.92919628	     -0.30717313	    -14.75442851	     -0.39044362	     28.22641547	     87.07656592	     10.58944611	    -11.87694908	     21.14493509	     19.52831893	     94.11043631
     29.91666670	      3.33892008	      0.54011852	     -3.94973313	      0.59926523	      1.02707142	      0.67608317	      7.53286943	     -2.07701203	      7.93224131	     54.13489775	      0.94483221	     -1.74240026	    -15.93512508	     -7.49999987	     10.48798875	      1.63258110	     -0.86539520	     17.91643428	      0.31270077	      2.46154065	     -4.39298940	     -7.49999987	    -14.21783997	     -4.06155713	      6.85076179	     -0.62131607	    -14.74536049	     -0.45884600	     28.17051329	     87.02377024	     10.82518825	    -12.21179944	     21.23229859	     19.80407273	     94.01460055
     29.93333330	      3.60299439	      0.68758956	     -4.25672916	      0.60061683	      1.02671340	      0.67448377	      8.91532666	     -2.04721300	      8.59209396	     57.15920681	      0.99761636	     -2.48425629	    -15.90891534	     -7.49999987	      9.16261874	      2.02734278	     -0.97650587	     17.67648892	      0.30851293	      3.10401027	     -5.34498320	     -7.49999987	    -14.44923771	     -4.41331374	      7.09450388	     -1.11562320	    -14.68224492	     -0.55792195	     28.05640151	     86.98805869	     10.97093324	    -12.58220642	     21.33469448	     20.25361351	     93.93564400
     29.95000000	      3.78545435	      0.69528782	     -4.45704483	      0.60012481	      1.02715604	      0.67250713	     10.10027061	     -1.91131414	      8.94079733	     59.55483604	      1.03942797	     -2.74054568	    -15.57459101	     -7.49999987	      7.94425805	      2.28147440	     -0.84744899	     17.47357180	      0.30497136	      3.79930811	     -6.13480529	     -7.49999987	    -14.58060265	     -4.53308470	      7.26879347	     -1.62258761	    -14.71670633	     -0.72053562	     28.02700964	     86.89015639	     11.02775631	    -12.86515217	     21.42901941	     20.77636825	     93.79238977
     29.96666670	      3.88900567	      0.73300679	     -4.75131144	      0.59703276	      1.02815661	      0.67066143	     11.44589857	     -1.85857538	      9.02466643	     61.67628090	      1.07645417	     -2.24584048	    -14.54807876	     -7.49999987	      6.69946912	      2.58802652	     -0.46668721	     17.03016769	      0.29723250	      4.01094722	     -7.29166768	     -7.49999987	    -14.71521215	     -4.66975497	      8.19825149	     -3.16894711	    -14.42426628	     -3.70385633	     29.27856130	     86.31774061	     11.63200327	    -13.28962296	     23.79515471	     21.84508288	     91.80213489
     29.98333330	      4.05958174	      0.61155940	     -5.00998892	      0.59226893	      1.02981134	      0.66881820	     12.78026555	     -1.62672574	      8.73054120	     63.20495473	      1.10313456	     -1.88095420	    -14.02683730	     -7.49999987	      5.30213567	      2.67177956	     -0.12723150	     16.45626863	      0.28721607	      4.72067875	     -7.58886941	     -7.49999987	    -14.91576853	     -4.59472075	      8.24050634	     -3.43466088	    -14.51153856	     -3.75667314	     29.32827305	     86.27792823	     11.83737515	    -13.59371485	     23.81369798	     22.48304628	     91.54132663
